{
    "accessors" : [
        {
            "bufferView" : 0,
            "componentType" : 5123.0,
            "count" : 3456,
            "max" : [
                2303.0
            ],
            "min" : [
                0.0
            ],
            "type" : "SCALAR"
        },
        {
            "bufferView" : 1,
            "componentType" : 5126.0,
            "count" : 2304,
            "max" : [
                1.25,
                0.25,
                1.25
            ],
            "min" : [
                -1.25,
                -0.25,
                -1.25
            ],
            "type" : "VEC3"
        },
        {
            "bufferView" : 2,
            "componentType" : 5123.0,
            "count" : 1533,
            "max" : [
                707.0
            ],
            "min" : [
                0.0
            ],
            "type" : "SCALAR"
        },
        {
            "bufferView" : 3,
            "componentType" : 5126.0,
            "count" : 708,
            "max" : [
                3.1550002098083496,
                0.0,
                0.009000000543892384
            ],
            "min" : [
                0.04100000113248825,
                0.0,
                -0.6820000410079956
            ],
            "type" : "VEC3"
        },
        {
            "bufferView" : 4,
            "componentType" : 5123.0,
            "count" : 1953,
            "max" : [
                921.0
            ],
            "min" : [
                0.0
            ],
            "type" : "SCALAR"
        },
        {
            "bufferView" : 5,
            "componentType" : 5126.0,
            "count" : 922,
            "max" : [
                3.5510003566741943,
                0.0,
                0.009000000543892384
            ],
            "min" : [
                0.04100000113248825,
                0.0,
                -0.6910000443458557
            ],
            "type" : "VEC3"
        },
        {
            "bufferView" : 6,
            "componentType" : 5123.0,
            "count" : 1527,
            "max" : [
                703.0
            ],
            "min" : [
                0.0
            ],
            "type" : "SCALAR"
        },
        {
            "bufferView" : 7,
            "componentType" : 5126.0,
            "count" : 704,
            "max" : [
                2.832000255584717,
                0.0,
                0.009000000543892384
            ],
            "min" : [
                0.04100000113248825,
                0.0,
                -0.6820000410079956
            ],
            "type" : "VEC3"
        },
        {
            "bufferView" : 8,
            "componentType" : 5121.0,
            "count" : 36,
            "max" : [
                23.0
            ],
            "min" : [
                0.0
            ],
            "type" : "SCALAR"
        },
        {
            "bufferView" : 9,
            "componentType" : 5126.0,
            "count" : 24,
            "max" : [
                1.0000004768371582,
                1.0,
                1.0000005960464478
            ],
            "min" : [
                -1.0000003576278687,
                -1.0,
                -1.0000003576278687
            ],
            "type" : "VEC3"
        },
        {
            "bufferView" : 10,
            "componentType" : 5123.0,
            "count" : 3456,
            "max" : [
                2303.0
            ],
            "min" : [
                0.0
            ],
            "type" : "SCALAR"
        },
        {
            "bufferView" : 11,
            "componentType" : 5126.0,
            "count" : 2304,
            "max" : [
                1.25,
                0.25,
                1.25
            ],
            "min" : [
                -1.25,
                -0.25,
                -1.25
            ],
            "type" : "VEC3"
        }
    ],
    "asset" : {
        "generator" : "Khronos Blender glTF 2.0 exporter",
        "version" : "2.0"
    },
    "bufferViews" : [
        {
            "buffer" : 0,
            "byteLength" : 6912,
            "byteOffset" : 0,
            "target" : 34963.0
        },
        {
            "buffer" : 0,
            "byteLength" : 27648,
            "byteOffset" : 6912,
            "target" : 34962.0
        },
        {
            "buffer" : 0,
            "byteLength" : 3066,
            "byteOffset" : 34560,
            "target" : 34963.0
        },
        {
            "buffer" : 0,
            "byteLength" : 8496,
            "byteOffset" : 37628,
            "target" : 34962.0
        },
        {
            "buffer" : 0,
            "byteLength" : 3906,
            "byteOffset" : 46124,
            "target" : 34963.0
        },
        {
            "buffer" : 0,
            "byteLength" : 11064,
            "byteOffset" : 50032,
            "target" : 34962.0
        },
        {
            "buffer" : 0,
            "byteLength" : 3054,
            "byteOffset" : 61096,
            "target" : 34963.0
        },
        {
            "buffer" : 0,
            "byteLength" : 8448,
            "byteOffset" : 64152,
            "target" : 34962.0
        },
        {
            "buffer" : 0,
            "byteLength" : 36,
            "byteOffset" : 72600,
            "target" : 34963.0
        },
        {
            "buffer" : 0,
            "byteLength" : 288,
            "byteOffset" : 72636,
            "target" : 34962.0
        },
        {
            "buffer" : 0,
            "byteLength" : 6912,
            "byteOffset" : 72924,
            "target" : 34963.0
        },
        {
            "buffer" : 0,
            "byteLength" : 27648,
            "byteOffset" : 79836,
            "target" : 34962.0
        }
    ],
    "buffers" : [
        {
            "byteLength" : 107484,
            "uri" : "data:application/octet-stream;base64,"
        }
    ],
    "cameras" : [
        {
            "name" : "Camera",
            "perspective" : {
                "aspectRatio" : 1.7777777777777777,
                "yfov" : 0.5033799372418416,
                "zfar" : 100.0,
                "znear" : 0.10000000149011612
            },
            "type" : "perspective"
        }
    ],
    "extensions" : {
        "KHR_lights_punctual" : {
            "lights" : [
                {
                    "color" : [
                        1.0,
                        1.0,
                        1.0
                    ],
                    "intensity" : 1.0,
                    "name" : "Spot",
                    "spot" : {
                        "innerConeAngle" : 0.3337942263919169,
                        "outerConeAngle" : 0.39269909262657166
                    },
                    "type" : "spot"
                },
                {
                    "color" : [
                        1.0,
                        1.0,
                        1.0
                    ],
                    "intensity" : 1.0,
                    "name" : "Spot.002",
                    "spot" : {
                        "innerConeAngle" : 0.3337942263919169,
                        "outerConeAngle" : 0.39269909262657166
                    },
                    "type" : "spot"
                },
                {
                    "color" : [
                        1.0,
                        1.0,
                        1.0
                    ],
                    "intensity" : 1.0,
                    "name" : "Spot.004",
                    "spot" : {
                        "innerConeAngle" : 0.3337942263919169,
                        "outerConeAngle" : 0.39269909262657166
                    },
                    "type" : "spot"
                }
            ]
        }
    },
    "extensionsRequired" : [
        "KHR_lights_punctual"
    ],
    "extensionsUsed" : [
        "KHR_materials_unlit",
        "KHR_lights_punctual"
    ],
    "materials" : [
        {
            "extensions" : {
                "KHR_materials_unlit" : {}
            },
            "name" : "LabelMaterial",
            "pbrMetallicRoughness" : {
                "baseColorFactor" : [
                    0.800000011920929,
                    0.800000011920929,
                    0.800000011920929,
                    1.0
                ],
                "metallicFactor" : 0.0,
                "roughnessFactor" : 0.9
            }
        },
        {
            "alphaMode" : "BLEND",
            "name" : "NodeMaterial",
            "pbrMetallicRoughness" : {
                "baseColorFactor" : [
                    0.6400000190734865,
                    0.6400000190734865,
                    0.6400000190734865,
                    0.0
                ],
                "metallicFactor" : 0.0
            }
        },
        {
            "name" : "PlaneMaterial",
            "pbrMetallicRoughness" : {
                "baseColorFactor" : [
                    0.6400000190734865,
                    0.6400000190734865,
                    0.6400000190734865,
                    1.0
                ],
                "metallicFactor" : 0.0
            }
        }
    ],
    "meshes" : [
        {
            "extensions" : {},
            "name" : "Torus.002",
            "primitives" : [
                {
                    "attributes" : {
                        "POSITION" : 1
                    },
                    "extensions" : {},
                    "extras" : {},
                    "indices" : 0
                }
            ]
        },
        {
            "extensions" : {},
            "name" : "Text.001",
            "primitives" : [
                {
                    "attributes" : {
                        "POSITION" : 3
                    },
                    "extensions" : {},
                    "extras" : {},
                    "indices" : 2,
                    "material" : 0
                }
            ]
        },
        {
            "extensions" : {},
            "name" : "Text",
            "primitives" : [
                {
                    "attributes" : {
                        "POSITION" : 5
                    },
                    "extensions" : {},
                    "extras" : {},
                    "indices" : 4,
                    "material" : 0
                }
            ]
        },
        {
            "extensions" : {},
            "name" : "Text.002",
            "primitives" : [
                {
                    "attributes" : {
                        "POSITION" : 7
                    },
                    "extensions" : {},
                    "extras" : {},
                    "indices" : 6,
                    "material" : 0
                }
            ]
        },
        {
            "extensions" : {},
            "name" : "Cube",
            "primitives" : [
                {
                    "attributes" : {
                        "POSITION" : 9
                    },
                    "extensions" : {},
                    "extras" : {},
                    "indices" : 8,
                    "material" : 2
                }
            ]
        },
        {
            "extensions" : {},
            "name" : "Torus",
            "primitives" : [
                {
                    "attributes" : {
                        "POSITION" : 11
                    },
                    "extensions" : {},
                    "extras" : {},
                    "indices" : 10,
                    "material" : 1
                }
            ]
        }
    ],
    "nodes" : [
        {
            "camera" : 0,
            "extensions" : {},
            "name" : "Correction_Camera",
            "rotation" : [
                -0.7071067690849304,
                -0.0,
                0.0,
                0.7071067690849304
            ]
        },
        {
            "children" : [
                0
            ],
            "extensions" : {},
            "name" : "Camera",
            "translation" : [
                0.0,
                50.0,
                -0.0
            ]
        },
        {
            "extensions" : {},
            "mesh" : 4,
            "name" : "Cube",
            "scale" : [
                10.0,
                0.10000000149011612,
                10.0
            ]
        },
        {
            "extensions" : {
                "KHR_lights_punctual" : {
                    "light" : 0
                }
            },
            "name" : "Correction_Spot",
            "rotation" : [
                -0.7071067690849304,
                -0.0,
                0.0,
                0.7071067690849304
            ]
        },
        {
            "children" : [
                3
            ],
            "extensions" : {},
            "name" : "Spot",
            "rotation" : [
                0.3826834559440613,
                0.0,
                -0.0,
                0.9238795638084412
            ],
            "scale" : [
                1.0,
                0.9999999403953552,
                0.9999999403953552
            ],
            "translation" : [
                5.0,
                5.0,
                -0.0
            ]
        },
        {
            "extensions" : {
                "KHR_lights_punctual" : {
                    "light" : 2
                }
            },
            "name" : "Correction_Spot.001",
            "rotation" : [
                -0.7071067690849304,
                -0.0,
                0.0,
                0.7071067690849304
            ]
        },
        {
            "children" : [
                5
            ],
            "extensions" : {},
            "name" : "Spot.001",
            "rotation" : [
                0.3826834559440613,
                0.0,
                -0.0,
                0.9238795638084412
            ],
            "scale" : [
                1.0,
                0.9999999403953552,
                0.9999999403953552
            ]
        },
        {
            "extensions" : {
                "KHR_lights_punctual" : {
                    "light" : 1
                }
            },
            "name" : "Correction_Spot.002",
            "rotation" : [
                -0.7071067690849304,
                -0.0,
                0.0,
                0.7071067690849304
            ]
        },
        {
            "children" : [
                7
            ],
            "extensions" : {},
            "name" : "Spot.002",
            "scale" : [
                1.0,
                0.9999999403953552,
                1.0
            ]
        },
        {
            "extensions" : {},
            "mesh" : 2,
            "name" : "Text",
            "translation" : [
                -9.921443939208984,
                0.0,
                -10.613022804260254
            ]
        },
        {
            "extensions" : {},
            "mesh" : 1,
            "name" : "Text.001",
            "translation" : [
                -1.5705938339233398,
                0.0,
                -10.613022804260254
            ]
        },
        {
            "extensions" : {},
            "mesh" : 3,
            "name" : "Text.002",
            "translation" : [
                6.381527423858643,
                0.0,
                -10.613022804260254
            ]
        },
        {
            "children" : [
                8
            ],
            "extensions" : {},
            "mesh" : 5,
            "name" : "Torus",
            "rotation" : [
                0.3826834559440613,
                0.0,
                -0.0,
                0.9238795638084412
            ],
            "scale" : [
                1.0,
                0.9999999403953552,
                0.10000000149011612
            ],
            "translation" : [
                -5.0,
                5.0,
                -0.0
            ]
        },
        {
            "children" : [
                6
            ],
            "extensions" : {},
            "mesh" : 0,
            "name" : "Torus.002",
            "rotation" : [
                -0.0,
                -0.0,
                -1.0,
                0.0
            ],
            "scale" : [
                -1.0,
                -1.0,
                -1.0
            ],
            "translation" : [
                0.0,
                5.0,
                -0.0
            ]
        }
    ],
    "scene" : 0,
    "scenes" : [
        {
            "name" : "Scene",
            "nodes" : [
                11,
                10,
                9,
                13,
                12,
                4,
                2,
                1
            ]
        }
    ]
}
